<svg width="88" height="57" viewBox="0 0 357 232" fill="none" xmlns="http://www.w3.org/2000/svg">
<path d="M279.4 0H234.5V44.1H279.4V0Z" fill="#F57838"/>
<path d="M122.4 209.9C122.4 222.1 112.4 232 100 232C87.6 232 77.6 222.1 77.6 209.9C77.6 197.7 87.6 187.8 100 187.8C112.3 187.9 122.4 197.8 122.4 209.9Z" fill="#F57838"/>
<path d="M0 120.8H80.9V111.3H0V120.8ZM95.2 101.4H104.8V21.9H95.2V101.4ZM261.8 84.5V21.9H252.2V84.5C252.2 99.3 240 111.3 225 111.3H132.2C111.9 111.3 95.4 127.5 95.4 147.5V210.1H105V147.5C105 132.7 117.2 120.7 132.2 120.7H225C245.2 120.7 261.8 104.5 261.8 84.5ZM252.2 210.1H261.8V130.6H252.2V210.1ZM357 120.8V111.3H276.1V120.8H357Z" fill="#292929"/>
</svg>
